<?xml version="1.0" standalone="no"?>
<!DOCTYPE svg PUBLIC "-//W3C//DTD SVG 20010904//EN"
 "http://www.w3.org/TR/2001/REC-SVG-20010904/DTD/svg10.dtd">
<svg version="1.0" xmlns="http://www.w3.org/2000/svg"
 width="1200.000000pt" height="675.000000pt" viewBox="0 0 1200.000000 675.000000"
 preserveAspectRatio="xMidYMid meet">

<g transform="translate(0.000000,675.000000) scale(0.100000,-0.100000)"
fill="#000000" stroke="none">
<path d="M5586 6035 c-81 -22 -171 -72 -212 -117 -22 -24 -67 -95 -101 -159
-150 -277 -239 -622 -185 -719 26 -48 101 -96 169 -110 121 -26 236 10 311 95
49 55 62 94 101 285 31 153 33 162 130 417 84 223 82 277 -12 312 -38 15 -141
12 -201 -4z"/>
<path d="M7199 5781 c-14 -5 -36 -14 -50 -21 -37 -20 -449 -305 -689 -479
-342 -246 -396 -293 -420 -366 -11 -34 -10 -40 28 -103 88 -148 139 -195 223
-210 49 -9 139 7 192 34 37 19 522 375 869 637 200 152 241 187 259 223 34 71
13 132 -72 208 -36 33 -69 52 -116 66 -66 20 -174 26 -224 11z"/>
<path d="M3935 5351 c-27 -16 -91 -71 -142 -123 -123 -126 -130 -160 -53 -263
21 -27 121 -146 224 -262 212 -242 234 -259 327 -250 74 6 144 44 227 121 113
106 143 196 98 291 -23 47 -120 143 -306 304 -260 224 -284 236 -375 182z"/>
<path d="M6713 4200 c-156 -32 -255 -142 -256 -285 0 -161 85 -261 255 -300
97 -22 1577 -22 1682 0 200 42 308 212 245 386 -29 81 -94 148 -176 181 l-58
23 -825 2 c-454 0 -844 -3 -867 -7z"/>
<path d="M4705 4159 c-153 -12 -264 -35 -370 -75 -99 -39 -100 -39 -110 -71
-5 -18 -2 -23 13 -23 10 0 27 9 37 20 20 22 247 100 291 100 25 0 24 -3 -33
-67 -121 -139 -157 -192 -215 -313 -29 -62 -35 -131 -13 -153 26 -26 54 -21
60 11 15 79 27 114 65 192 54 113 95 178 156 247 28 32 56 68 63 81 12 22 17
23 74 18 34 -3 81 -8 105 -11 40 -7 42 -6 42 18 0 24 -18 39 -43 36 -7 -1 -61
-6 -122 -10z"/>
<path d="M6135 4150 c-98 -8 -164 -24 -270 -62 -98 -36 -125 -53 -125 -78 0
-29 15 -32 41 -9 13 12 40 29 59 39 42 22 215 70 250 70 23 0 21 -4 -27 -52
-178 -184 -302 -437 -238 -484 28 -21 54 -17 59 9 19 99 33 138 93 252 43 82
87 150 120 186 29 31 57 68 63 83 10 27 11 28 78 23 37 -3 83 -9 103 -12 29
-5 37 -3 43 10 3 9 4 21 0 26 -6 10 -128 10 -249 -1z"/>
<path d="M5223 4135 c-117 -32 -255 -121 -289 -186 -31 -61 -16 -74 140 -119
181 -53 199 -67 154 -126 -33 -42 -46 -51 -123 -80 -115 -44 -205 -93 -205
-111 0 -14 9 -15 68 -9 56 5 90 18 207 75 77 38 166 81 198 96 31 15 62 35 67
46 14 25 -4 25 -63 0 l-44 -19 5 48 c4 46 3 50 -27 68 -20 12 -84 28 -169 41
-81 13 -143 28 -151 36 -13 13 -11 18 14 45 39 41 136 94 210 116 79 23 190
23 232 1 28 -15 32 -21 26 -47 -6 -33 -2 -35 28 -20 46 25 10 118 -57 146 -42
18 -153 17 -221 -1z"/>
<path d="M3705 4098 c-116 -28 -596 -186 -663 -218 -102 -48 -161 -134 -182
-265 -16 -97 -5 -161 32 -198 27 -28 33 -29 86 -24 31 4 154 33 272 66 118 32
301 82 405 111 216 59 256 74 307 119 59 51 82 111 82 211 0 104 -25 169 -76
200 -43 26 -152 25 -263 -2z"/>
<path d="M4622 3618 c-18 -18 -15 -41 8 -66 25 -27 32 -27 53 -4 22 25 21 34
-6 60 -27 25 -38 27 -55 10z"/>
<path d="M5450 3616 c-16 -21 -6 -58 21 -74 19 -12 24 -11 42 7 l21 21 -20 27
c-25 33 -46 39 -64 19z"/>
<path d="M4037 3181 c-128 -46 -120 -38 -560 -601 -264 -338 -320 -423 -333
-505 -13 -92 1 -129 78 -210 134 -142 227 -150 338 -29 47 51 596 715 713 864
82 103 118 175 124 249 6 66 -9 110 -57 165 -38 43 -75 64 -145 82 -65 18 -67
18 -158 -15z"/>
<path d="M6163 3162 c-110 -39 -181 -116 -204 -221 -13 -61 -6 -122 24 -201
24 -64 59 -101 457 -475 721 -678 717 -675 816 -695 117 -24 274 28 356 119
59 65 83 132 83 231 0 125 21 102 -625 701 -597 554 -592 549 -758 556 -76 3
-108 0 -149 -15z"/>
<path d="M5067 2850 c-86 -22 -157 -72 -202 -143 -40 -63 -42 -103 -34 -782
11 -892 10 -879 41 -946 34 -73 66 -109 130 -144 45 -25 67 -30 143 -33 74 -3
100 0 147 17 67 26 127 82 162 154 l26 51 -1 415 c0 229 -4 587 -9 796 -9 426
-10 439 -81 519 -72 81 -212 123 -322 96z"/>
</g>
</svg>
